# xmcd
#
# Track frame offsets: 
#        150
#        19034
#        37221
#        50631
#        66162
#        83330
#        102617
#        122096
#        136785
#        154468
#        174238
#        192141
#
# Disc length: 2998 seconds
#
# Revision: 1
# Processed by: cddbd v1.5.2PL0 Copyright (c) Steve Scherf et al.
# Submitted via: ExactAudioCopy v1.0b4
#
DISCID=9f0bb40c
DTITLE=Slam Allen - Feel These Blues
DYEAR=2015
DGENRE=Blues
TTITLE0=Feel These Blues
TTITLE1=All Because Of You
TTITLE2=In September
TTITLE3=The Blues Is Back
TTITLE4=Baby Please Don't You Go
TTITLE5=35 Miles Outside Of Memphis
TTITLE6=World Don't Stop Turning
TTITLE7=Can't Break Away From That Girl
TTITLE8=When The Blues Come Around
TTITLE9=That's Where You Are
TTITLE10=You're Wrong
TTITLE11=Purple Rain
EXTD=
EXTT0=
EXTT1=
EXTT2=
EXTT3=
EXTT4=
EXTT5=
EXTT6=
EXTT7=
EXTT8=
EXTT9=
EXTT10=
EXTT11=
PLAYORDER=
